<?xml version="1.0" standalone="no"?>
<!DOCTYPE svg PUBLIC "-//W3C//DTD SVG 20010904//EN"
 "http://www.w3.org/TR/2001/REC-SVG-20010904/DTD/svg10.dtd">
<svg version="1.0" xmlns="http://www.w3.org/2000/svg"
 width="1920.000000pt" height="1080.000000pt" viewBox="0 0 1920.000000 1080.000000"
 preserveAspectRatio="xMidYMid meet">

<g transform="translate(0.000000,1080.000000) scale(0.100000,-0.100000)"
fill="#000000" stroke="none">
<path d="M8753 5673 c15 -4 17 -19 17 -138 0 -119 -2 -134 -17 -138 -10 -3 7
-5 37 -6 42 0 51 2 38 10 -16 9 -18 26 -18 134 0 108 2 125 18 134 13 8 4 10
-38 10 -30 -1 -47 -3 -37 -6z"/>
<path d="M8904 5664 c13 -12 16 -39 16 -127 0 -114 -4 -130 -30 -140 -8 -3 5
-6 29 -6 39 -1 42 1 28 12 -15 11 -17 28 -15 126 l3 114 80 -126 c44 -69 83
-126 88 -127 4 0 7 61 7 135 0 117 2 135 18 144 14 8 9 10 -22 11 -35 0 -38
-2 -23 -13 15 -10 17 -27 15 -107 l-3 -95 -70 108 c-65 101 -71 107 -103 107
-30 0 -32 -1 -18 -16z"/>
<path d="M9193 5669 c15 -9 17 -26 17 -134 0 -108 -2 -125 -17 -134 -14 -8 -3
-10 42 -10 46 0 55 2 38 9 -20 8 -23 16 -23 70 0 58 1 60 25 60 18 0 28 -7 36
-26 13 -37 16 -28 11 36 -4 41 -7 49 -11 30 -5 -18 -15 -26 -34 -28 -27 -3
-27 -3 -27 63 l0 66 52 -3 c49 -3 52 -5 64 -38 l12 -35 1 43 1 42 -102 0 c-75
-1 -98 -3 -85 -11z"/>
<path d="M9423 5673 c15 -4 17 -19 17 -138 0 -119 -2 -134 -17 -138 -10 -3 7
-5 37 -6 42 0 51 2 38 10 -16 9 -18 26 -18 134 0 108 2 125 18 134 13 8 4 10
-38 10 -30 -1 -47 -3 -37 -6z"/>
<path d="M9563 5673 c15 -4 17 -19 17 -133 0 -112 -2 -130 -17 -139 -14 -8 -8
-10 27 -10 25 1 37 3 28 6 -25 6 -29 33 -26 153 l3 105 85 -133 c47 -72 88
-132 93 -132 4 0 7 63 7 139 0 124 2 140 18 144 9 3 -3 5 -28 5 -36 1 -41 -1
-22 -8 21 -9 22 -15 22 -105 0 -57 -4 -94 -9 -90 -5 3 -38 50 -73 105 l-63
100 -40 -1 c-22 -1 -32 -3 -22 -6z"/>
<path d="M9864 5664 c13 -12 16 -39 16 -127 0 -114 -4 -130 -30 -140 -8 -3 12
-5 45 -5 33 0 53 2 45 5 -26 10 -30 26 -30 140 0 88 3 115 16 127 14 15 11 16
-31 16 -42 0 -45 -1 -31 -16z"/>
<path d="M9981 5638 l0 -43 16 38 c13 32 19 37 49 37 l34 0 0 -122 c0 -125 -3
-141 -30 -151 -8 -3 14 -5 50 -6 49 0 59 3 43 9 -22 9 -23 14 -23 140 l0 131
33 -3 c27 -2 34 -9 44 -38 l12 -35 0 43 1 42 -115 0 -115 0 1 -42z"/>
<path d="M10264 5664 c13 -12 16 -39 16 -127 0 -114 -4 -130 -30 -140 -8 -3
35 -6 97 -6 l111 -1 -1 39 c-1 21 -5 37 -9 34 -5 -2 -8 -10 -8 -18 0 -26 -31
-45 -75 -45 -50 0 -55 8 -55 81 0 47 1 49 29 49 23 0 32 -6 39 -27 9 -24 10
-18 10 37 0 54 -1 61 -9 38 -11 -27 -41 -44 -59 -33 -11 7 -14 84 -4 109 4 12
20 16 55 16 46 0 50 -2 63 -32 l14 -33 1 38 1 37 -101 0 c-91 0 -99 -1 -85
-16z"/>
<path d="M10241 5297 c-13 -34 -14 -40 -2 -33 4 3 20 -27 35 -66 20 -55 23
-74 14 -80 -8 -5 -1 -8 18 -8 l32 0 -38 93 c-20 51 -39 100 -42 108 -4 9 -9 5
-17 -14z"/>
<path d="M10507 5303 c-4 -3 -7 -14 -7 -24 0 -9 -6 -20 -12 -22 -10 -4 -10 -6
0 -6 8 -1 12 -18 12 -52 0 -65 13 -89 48 -88 23 2 24 2 5 6 -21 4 -23 10 -23
68 0 58 2 64 23 68 l22 4 -22 2 c-17 1 -23 7 -23 26 0 24 -10 32 -23 18z"/>
<path d="M10368 5248 c7 -7 12 -35 12 -63 0 -28 -5 -56 -12 -63 -9 -9 -3 -12
28 -12 31 1 36 3 22 11 -24 13 -24 86 -1 119 16 24 16 24 0 11 -11 -9 -17 -10
-17 -2 0 6 -10 11 -22 11 -17 0 -19 -3 -10 -12z"/>
<path d="M10442 5244 c4 -21 22 -23 26 -1 2 10 -3 17 -13 17 -10 0 -15 -6 -13
-16z"/>
<path d="M10196 5185 c-9 -26 -7 -32 5 -12 6 10 9 21 6 23 -2 3 -7 -2 -11 -11z"/>
<path d="M10172 5130 c-11 -18 -10 -20 15 -20 16 0 23 4 17 8 -6 4 -13 13 -15
20 -3 8 -8 5 -17 -8z"/>
</g>
</svg>
